<svg xmlns="http://www.w3.org/2000/svg" xmlns:xlink="http://www.w3.org/1999/xlink" width="100" height="63" viewBox="0 0 100 63"><defs><path id="a" d="M42.1 30.9c-7.4-2.6-11.3-10.8-8.6-18.2 2.6-7.4 10.8-11.3 18.2-8.6 7.4 2.6 11.3 10.8 8.6 18.2-2.6 7.4-10.8 11.3-18.2 8.6z"/></defs><clipPath id="b"><use xlink:href="#a" overflow="visible"/></clipPath><g clip-path="url(#b)"><path fill="#00355F" d="M42.1 30.9c-7.4-2.6-11.3-10.8-8.6-18.2 2.6-7.4 10.8-11.3 18.2-8.6 7.4 2.6 11.3 10.8 8.6 18.2-2.6 7.4-10.8 11.3-18.2 8.6z"/><path fill="#FFD200" d="M49.8 16.2l.4 1.7-.7 8.1.9-.3 3.3-10.6 4.9-1.4c.6-.2 1.3-.6 1.7-.9-.2-.4-.3-.9-.5-1.3-.5 0-1.2 0-1.8.2l-4.9 1.4-8.4-7.2-.9.2 4.9 6.5.6 1.6-4.7 1.3-11.8 4.1c0 .2.1.5.1.7l12.3-2.9 4.6-1.2z"/></g><path d="M28.5 51.5h-4.2L20.6 47l-3.7 4.5h-3.4v-.1l5.4-6.6-5.3-6.6v-.1h4.2l3.2 4 3.3-4h3.5v.1l-5.1 6.1 5.8 7.2c.1 0 .1 0 0 0zm29.2-5.8c-.1 0-.1 0 0 0h-9.8c.2 2.3 1.7 3.6 4 3.6 1.5 0 3-.5 5.2-1.7 0 0 .1 0 .1.1v3c-2 .9-4.1 1.5-5.7 1.5-4.2 0-7.2-3-7.2-7.2s3-7.2 7.2-7.2c3.8 0 6.3 2.6 6.3 6.1 0 .4-.1 1.7-.1 1.8zm-6.2-5.2c-1.9 0-3.2 1.1-3.5 3.1h6.4v-.1c0-1.6-1.2-3-2.9-3zm24.1 11l-.1-13.3v-.1H79v13.3s0 .1-.1.1h-3.3zm1.8-16.1c-1.2 0-2.2-1-2.2-2.1 0-1.2 1-2.2 2.2-2.2 1.2 0 2.2 1 2.2 2.2 0 1.2-1 2.1-2.2 2.1zm-41.5 2.2c-1 0-2 .2-3 .5h-3.5s-.1 0-.1.1v21.7c1.1-.1 2.3-.5 3.6-1.4v-6.6c.9.1 1.6.2 2.3.2 4.8 0 7.9-2.9 7.9-7.3-.1-4.2-3-7.2-7.2-7.2zm-1 11.9c-.6 0-1.3-.1-2-.3v-8.5c.9-.3 1.6-.4 2.4-.4 2.4 0 4.1 1.8 4.1 4.5 0 2.9-1.8 4.7-4.5 4.7zm34.4-18.3v6.9c-1-.3-1.9-.4-2.8-.4-4.2 0-7.3 3.1-7.3 7.3 0 4.1 2.8 7.2 6.6 7.2 1.3 0 2.6-.3 4-1.1v1.2c1-.2 2.1-.6 3.1-1.3V29.8c-1.1.1-2.4.5-3.6 1.4zm0 17.2c-1.1.6-2.1.9-3 .9-2.2 0-3.5-1.5-3.5-4.1 0-3 1.7-4.9 4.2-4.9.7 0 1.4.2 2.2.6v7.5zM95 38c0-.1-.1-.2-.2-.2H92c-.1 0-.2.1-.2.2v.5h-.1c-1.3-.6-2.4-.8-3.5-.8-3.9 0-7 3.3-7 7.4 0 4.2 2.8 7 6.9 7 1.1 0 2.5-.1 3.8-1.6v1.7c.9-.2 2-.6 3.1-1.3V38zm-3.6 10.4c-1.1.6-2 .9-2.8.9-2.3 0-3.7-1.5-3.7-4.1 0-2.9 1.6-4.9 4.1-4.9.7 0 1.4.2 2.4.8v7.3zM3.7 48.2h8.8c-.1 1-.5 2.1-1.2 3.3H2.2c-1.1 0-2-.9-2.1-2V32.2c.1-1.1 1-2 2.1-2h10.4c-.1 1-.5 2.2-1.2 3.3H3.7v4.7h7.5s.1 0 .1.1v3.3s0 .1-.1.1H3.7v6.5z" fill="#00355F"/><g fill="#00355F"><path d="M59.1 28.1c-.9 0-1.7.7-1.7 1.7s.7 1.7 1.7 1.7c.9 0 1.6-.7 1.6-1.7.1-1.1-.7-1.7-1.6-1.7zm0 3.2c-.9 0-1.4-.7-1.4-1.5 0-.9.6-1.5 1.4-1.5.8 0 1.4.6 1.4 1.5 0 .8-.6 1.5-1.4 1.5z"/><path d="M59.9 29.3c0-.4-.2-.6-.7-.6h-.8v2h.3v-.8h.3l.5.8h.4l-.6-.9c.4 0 .6-.1.6-.5zm-1.2.3V29h.4c.2 0 .5 0 .5.3s-.2.3-.5.3h-.4z"/></g><g fill="#00355F"><path d="M98.4 37.7c-.9 0-1.7.7-1.7 1.7s.7 1.7 1.7 1.7c.9 0 1.6-.7 1.6-1.7 0-1.1-.8-1.7-1.6-1.7zm0 3.2c-.9 0-1.4-.7-1.4-1.5 0-.9.6-1.5 1.4-1.5.8 0 1.4.6 1.4 1.5 0 .8-.7 1.5-1.4 1.5z"/><path d="M99.1 38.9c0-.4-.2-.6-.7-.6h-.8v2h.4v-.8h.3l.5.8h.4l-.6-.9c.3 0 .5-.1.5-.5zm-1.1.3v-.6h.4c.2 0 .5 0 .5.3s-.2.3-.5.3H98z"/></g><path fill="none" d="M1.9 0h96v63h-96z"/></svg>